<svg xmlns="http://www.w3.org/2000/svg" viewBox="0 0 100 100"><defs><style>.cls-1{fill:#fff;}</style></defs><title>diceSix</title><g id="Layer_2" data-name="Layer 2"><g id="Layer_1-2" data-name="Layer 1"><rect class="cls-1" x="2.5" y="2.5" width="95" height="95" rx="3.17"/><path d="M94.33,5a.67.67,0,0,1,.67.67V94.33a.67.67,0,0,1-.67.67H5.67A.67.67,0,0,1,5,94.33V5.67A.67.67,0,0,1,5.67,5H94.33m0-5H5.67A5.67,5.67,0,0,0,0,5.67V94.33A5.67,5.67,0,0,0,5.67,100H94.33A5.67,5.67,0,0,0,100,94.33V5.67A5.67,5.67,0,0,0,94.33,0Z"/><circle cx="29.5" cy="51.5" r="6"/><path d="M29.5,48A3.5,3.5,0,1,1,26,51.5,3.5,3.5,0,0,1,29.5,48m0-5A8.5,8.5,0,1,0,38,51.5,8.51,8.51,0,0,0,29.5,43Z"/><circle cx="29.5" cy="26.5" r="6"/><path d="M29.5,23A3.5,3.5,0,1,1,26,26.5,3.5,3.5,0,0,1,29.5,23m0-5A8.5,8.5,0,1,0,38,26.5,8.51,8.51,0,0,0,29.5,18Z"/><circle cx="29.5" cy="74.5" r="6"/><path d="M29.5,71A3.5,3.5,0,1,1,26,74.5,3.5,3.5,0,0,1,29.5,71m0-5A8.5,8.5,0,1,0,38,74.5,8.51,8.51,0,0,0,29.5,66Z"/><circle cx="68.5" cy="51.5" r="6"/><path d="M68.5,48A3.5,3.5,0,1,1,65,51.5,3.5,3.5,0,0,1,68.5,48m0-5A8.5,8.5,0,1,0,77,51.5,8.51,8.51,0,0,0,68.5,43Z"/><circle cx="68.5" cy="26.5" r="6"/><path d="M68.5,23A3.5,3.5,0,1,1,65,26.5,3.5,3.5,0,0,1,68.5,23m0-5A8.5,8.5,0,1,0,77,26.5,8.51,8.51,0,0,0,68.5,18Z"/><circle cx="68.5" cy="74.5" r="6"/><path d="M68.5,71A3.5,3.5,0,1,1,65,74.5,3.5,3.5,0,0,1,68.5,71m0-5A8.5,8.5,0,1,0,77,74.5,8.51,8.51,0,0,0,68.5,66Z"/></g></g></svg>