<svg xmlns="http://www.w3.org/2000/svg" viewBox="0 0 100 100"><defs><style>.cls-1{fill:#fff;}</style></defs><title>diceTwo</title><g id="Layer_2" data-name="Layer 2"><g id="Layer_1-2" data-name="Layer 1"><rect class="cls-1" x="2.5" y="2.5" width="95" height="95" rx="3.17"/><path d="M94.33,5a.67.67,0,0,1,.67.67V94.33a.67.67,0,0,1-.67.67H5.67A.67.67,0,0,1,5,94.33V5.67A.67.67,0,0,1,5.67,5H94.33m0-5H5.67A5.67,5.67,0,0,0,0,5.67V94.33A5.67,5.67,0,0,0,5.67,100H94.33A5.67,5.67,0,0,0,100,94.33V5.67A5.67,5.67,0,0,0,94.33,0Z"/><circle cx="33.5" cy="64.5" r="6"/><path d="M33.5,61A3.5,3.5,0,1,1,30,64.5,3.5,3.5,0,0,1,33.5,61m0-5A8.5,8.5,0,1,0,42,64.5,8.51,8.51,0,0,0,33.5,56Z"/><circle cx="62.5" cy="33.5" r="6"/><path d="M62.5,30A3.5,3.5,0,1,1,59,33.5,3.5,3.5,0,0,1,62.5,30m0-5A8.5,8.5,0,1,0,71,33.5,8.51,8.51,0,0,0,62.5,25Z"/></g></g></svg>