<svg xmlns="http://www.w3.org/2000/svg" viewBox="0 0 100 100"><defs><style>.cls-1{fill:#fff;}</style></defs><title>diceFour</title><g id="Layer_2" data-name="Layer 2"><g id="Layer_1-2" data-name="Layer 1"><rect class="cls-1" x="2.5" y="2.5" width="95" height="95" rx="3.17"/><path d="M94.33,5a.67.67,0,0,1,.67.67V94.33a.67.67,0,0,1-.67.67H5.67A.67.67,0,0,1,5,94.33V5.67A.67.67,0,0,1,5.67,5H94.33m0-5H5.67A5.67,5.67,0,0,0,0,5.67V94.33A5.67,5.67,0,0,0,5.67,100H94.33A5.67,5.67,0,0,0,100,94.33V5.67A5.67,5.67,0,0,0,94.33,0Z"/><circle cx="71.5" cy="28.5" r="6"/><path d="M71.5,25A3.5,3.5,0,1,1,68,28.5,3.5,3.5,0,0,1,71.5,25m0-5A8.5,8.5,0,1,0,80,28.5,8.51,8.51,0,0,0,71.5,20Z"/><circle cx="26.5" cy="28.5" r="6"/><path d="M26.5,25A3.5,3.5,0,1,1,23,28.5,3.5,3.5,0,0,1,26.5,25m0-5A8.5,8.5,0,1,0,35,28.5,8.51,8.51,0,0,0,26.5,20Z"/><circle cx="25.5" cy="70.5" r="6"/><path d="M25.5,67A3.5,3.5,0,1,1,22,70.5,3.5,3.5,0,0,1,25.5,67m0-5A8.5,8.5,0,1,0,34,70.5,8.51,8.51,0,0,0,25.5,62Z"/><circle cx="71.5" cy="69.5" r="6"/><path d="M71.5,66A3.5,3.5,0,1,1,68,69.5,3.5,3.5,0,0,1,71.5,66m0-5A8.5,8.5,0,1,0,80,69.5,8.51,8.51,0,0,0,71.5,61Z"/></g></g></svg>