<svg xmlns="http://www.w3.org/2000/svg" viewBox="0 0 100 100"><defs><style>.cls-1{fill:#fff;}</style></defs><title>diceThree</title><g id="Layer_2" data-name="Layer 2"><g id="Layer_1-2" data-name="Layer 1"><rect class="cls-1" x="2.5" y="2.5" width="95" height="95" rx="3.17"/><path d="M94.33,5a.67.67,0,0,1,.67.67V94.33a.67.67,0,0,1-.67.67H5.67A.67.67,0,0,1,5,94.33V5.67A.67.67,0,0,1,5.67,5H94.33m0-5H5.67A5.67,5.67,0,0,0,0,5.67V94.33A5.67,5.67,0,0,0,5.67,100H94.33A5.67,5.67,0,0,0,100,94.33V5.67A5.67,5.67,0,0,0,94.33,0Z"/><circle cx="50.5" cy="50.5" r="6"/><path d="M50.5,47A3.5,3.5,0,1,1,47,50.5,3.5,3.5,0,0,1,50.5,47m0-5A8.5,8.5,0,1,0,59,50.5,8.51,8.51,0,0,0,50.5,42Z"/><circle cx="72.5" cy="26.5" r="6"/><path d="M72.5,23A3.5,3.5,0,1,1,69,26.5,3.5,3.5,0,0,1,72.5,23m0-5A8.5,8.5,0,1,0,81,26.5,8.51,8.51,0,0,0,72.5,18Z"/><circle cx="26.5" cy="72.5" r="6"/><path d="M26.5,69A3.5,3.5,0,1,1,23,72.5,3.5,3.5,0,0,1,26.5,69m0-5A8.5,8.5,0,1,0,35,72.5,8.51,8.51,0,0,0,26.5,64Z"/></g></g></svg>