<svg xmlns="http://www.w3.org/2000/svg" viewBox="0 0 100 100"><defs><style>.cls-1{fill:#fff;}</style></defs><title>diceFive</title><g id="Layer_2" data-name="Layer 2"><g id="Layer_1-2" data-name="Layer 1"><rect class="cls-1" x="2.5" y="2.5" width="95" height="95" rx="3.17"/><path d="M94.33,5a.67.67,0,0,1,.67.67V94.33a.67.67,0,0,1-.67.67H5.67A.67.67,0,0,1,5,94.33V5.67A.67.67,0,0,1,5.67,5H94.33m0-5H5.67A5.67,5.67,0,0,0,0,5.67V94.33A5.67,5.67,0,0,0,5.67,100H94.33A5.67,5.67,0,0,0,100,94.33V5.67A5.67,5.67,0,0,0,94.33,0Z"/><circle cx="50.5" cy="50.5" r="6"/><path d="M50.5,47A3.5,3.5,0,1,1,47,50.5,3.5,3.5,0,0,1,50.5,47m0-5A8.5,8.5,0,1,0,59,50.5,8.51,8.51,0,0,0,50.5,42Z"/><circle cx="78.5" cy="24.5" r="6"/><path d="M78.5,21A3.5,3.5,0,1,1,75,24.5,3.5,3.5,0,0,1,78.5,21m0-5A8.5,8.5,0,1,0,87,24.5,8.51,8.51,0,0,0,78.5,16Z"/><circle cx="22.5" cy="24.5" r="6"/><path d="M22.5,21A3.5,3.5,0,1,1,19,24.5,3.5,3.5,0,0,1,22.5,21m0-5A8.5,8.5,0,1,0,31,24.5,8.51,8.51,0,0,0,22.5,16Z"/><circle cx="22.5" cy="72.5" r="6"/><path d="M22.5,69A3.5,3.5,0,1,1,19,72.5,3.5,3.5,0,0,1,22.5,69m0-5A8.5,8.5,0,1,0,31,72.5,8.51,8.51,0,0,0,22.5,64Z"/><circle cx="78.5" cy="72.5" r="6"/><path d="M78.5,69A3.5,3.5,0,1,1,75,72.5,3.5,3.5,0,0,1,78.5,69m0-5A8.5,8.5,0,1,0,87,72.5,8.51,8.51,0,0,0,78.5,64Z"/></g></g></svg>